<?xml version="1.0" encoding="utf-8"?>
<!-- Generator: Adobe Illustrator 26.0.2, SVG Export Plug-In . SVG Version: 6.00 Build 0)  -->
<svg version="1.1" id="Layer_1" xmlns="http://www.w3.org/2000/svg" xmlns:xlink="http://www.w3.org/1999/xlink" x="0px" y="0px"
	 viewBox="0 0 1558.3 494.9" style="enable-background:new 0 0 1558.3 494.9;" xml:space="preserve">
<style type="text/css">
	.st0{fill:#242A35;}
	.st1{fill:#5C5CFF;}
</style>
<g>
	<path class="st0" d="M233.2,258.6c0.7-1.2,1-2.6,1-3.9v-86.4c0-2.3-0.8-4-2.5-5.4s-3.6-2.1-5.5-2.1h-30.7c-2.5,0-4.4,0.7-5.6,2
		c-1.2,1.4-1.8,3.1-1.8,5.4v59.3l-0.4,0.3c-2,1.3-4.7,2.6-7.8,3.9c-3.2,1.3-6.8,2.6-10.8,3.6c-4,1.1-8.3,2-12.8,2.7s-9.2,1-13.9,1
		c-12.5,0-24.5-2.5-35.6-7.3c-11.1-4.9-20.9-11.6-29.2-20c-8.3-8.4-14.9-18.4-19.8-29.7s-7.3-23.5-7.3-36.4
		c0-12.5,2.3-24.5,6.8-35.8s10.9-21.4,19-29.9c8.1-8.6,17.9-15.5,29.1-20.5s23.8-7.6,37.3-7.6c10.3,0,20.6,1.7,30.6,4.9
		c10,3.3,19,7.8,27,13.3c1.1,0.8,2.1,1.4,3,1.7c1,0.3,1.8,0.4,2.5,0.4c0.3,0,1.2-0.2,3.2-2.1c1.6-1.5,3.4-3.5,5.4-5.9
		c2-2.3,4-5,6.2-8c2.1-2.9,4-5.8,5.7-8.5s3.1-5.2,4.2-7.4c1.3-2.6,1.6-3.8,1.6-4.4c0-2-1.3-4.1-3.8-6.3c-2.7-2.3-5.9-4.7-9.8-6.9
		s-8-4.3-12.2-6.2c-4.3-1.9-8-3.4-11.2-4.7c-8.2-3.1-16.8-5.5-25.5-7c-8.8-1.6-17.7-2.3-26.5-2.3c-13.2,0-26,1.7-38.1,5.1
		S81.4,15.8,70.8,22S50.5,35.8,41.9,44.5S25.7,63,19.5,73.5C13.3,84.1,8.4,95.6,5.1,107.7C1.7,119.8,0,132.6,0,145.6
		c0,13.2,1.7,26,5.1,38.1s8.2,23.6,14.4,34.1c6.2,10.5,13.7,20.2,22.4,28.8c8.6,8.6,18.3,16.2,28.8,22.4s22,11.1,34.2,14.4
		c19.4,5.3,40.5,6.5,61.2,3.3c7.7-1.2,15.4-2.9,22.7-5.1c7.3-2.2,14.5-4.9,21.2-8.1s13.1-6.9,18.9-11l0.2-0.1
		c0.1-0.1,0.2-0.1,0.4-0.2C231.3,261,232.5,259.8,233.2,258.6z"/>
	<path class="st0" d="M455.3,255.8c6.8-6.8,12.8-14.5,17.7-22.7c4.9-8.2,8.7-17.3,11.4-26.8c2.7-9.6,4-19.7,4-30s-1.4-20.5-4-30.1
		c-2.7-9.6-6.5-18.7-11.4-27s-10.8-16-17.7-22.7c-6.8-6.8-14.5-12.7-22.7-17.5s-17.3-8.6-26.8-11.3c-9.6-2.7-19.6-4-29.8-4
		c-10.3,0-20.4,1.4-29.9,4c-9.5,2.7-18.5,6.5-26.8,11.3s-16,10.7-22.8,17.5s-12.8,14.4-17.7,22.7c-4.9,8.3-8.7,17.4-11.4,27
		c-2.7,9.6-4,19.7-4,30.1s1.4,20.5,4,30c2.7,9.6,6.5,18.6,11.4,26.8s10.8,15.9,17.7,22.7c6.8,6.8,14.5,12.7,22.8,17.6
		c8.3,4.8,17.3,8.6,26.8,11.3c9.5,2.7,19.6,4,29.9,4c10.2,0,20.3-1.4,29.8-4c9.6-2.7,18.6-6.5,26.8-11.3
		C440.8,268.5,448.4,262.6,455.3,255.8z M401.5,239.2c-7.9,3.6-16.5,5.4-25.7,5.4c-9.4,0-18.2-1.8-26.2-5.4
		c-8-3.6-14.9-8.5-20.8-14.7c-5.8-6.2-10.4-13.5-13.7-21.8c-3.2-8.3-4.9-17.2-4.9-26.5c0-9.2,1.6-18.1,4.9-26.4
		c3.2-8.4,7.8-15.8,13.6-22.1c5.8-6.3,12.8-11.5,20.7-15.2c8-3.8,16.8-5.7,26.2-5.7c9.2,0,17.8,1.9,25.7,5.7
		c7.8,3.8,14.7,8.9,20.4,15.2c5.7,6.3,10.2,13.8,13.4,22.1c3.2,8.4,4.8,17.2,4.8,26.4c0,9.3-1.6,18.2-4.8,26.5
		c-3.2,8.3-7.7,15.6-13.4,21.8C416.2,230.6,409.4,235.6,401.5,239.2z"/>
	<path class="st0" d="M708.5,255.8c6.8-6.8,12.8-14.5,17.7-22.7c4.9-8.2,8.7-17.3,11.4-26.8c2.7-9.6,4-19.7,4-30s-1.4-20.5-4-30.1
		c-2.7-9.6-6.5-18.7-11.4-27s-10.8-16-17.7-22.7c-6.8-6.8-14.5-12.7-22.7-17.5s-17.3-8.6-26.8-11.3c-9.6-2.7-19.6-4-29.8-4
		c-10.3,0-20.4,1.4-29.9,4c-9.5,2.7-18.5,6.5-26.8,11.3s-16,10.7-22.8,17.5s-12.8,14.4-17.7,22.7c-4.9,8.3-8.7,17.4-11.4,27
		c-2.7,9.6-4,19.7-4,30.1s1.4,20.5,4,30c2.7,9.6,6.5,18.6,11.4,26.8s10.8,15.9,17.7,22.7c6.8,6.8,14.5,12.7,22.8,17.6
		c8.3,4.8,17.3,8.6,26.8,11.3c9.5,2.7,19.6,4,29.9,4c10.2,0,20.3-1.4,29.8-4c9.6-2.7,18.6-6.5,26.8-11.3
		C694,268.5,701.6,262.6,708.5,255.8z M654.7,239.2c-7.9,3.6-16.5,5.4-25.7,5.4c-9.4,0-18.2-1.8-26.2-5.4c-8-3.6-14.9-8.5-20.8-14.7
		c-5.8-6.2-10.4-13.5-13.7-21.8c-3.2-8.3-4.9-17.2-4.9-26.5c0-9.2,1.6-18.1,4.9-26.4c3.2-8.4,7.8-15.8,13.6-22.1
		c5.8-6.3,12.8-11.5,20.7-15.2c8-3.8,16.8-5.7,26.2-5.7c9.2,0,17.8,1.9,25.7,5.7c7.8,3.8,14.7,8.9,20.4,15.2
		c5.7,6.3,10.2,13.8,13.4,22.1c3.2,8.4,4.8,17.2,4.8,26.4c0,9.3-1.6,18.2-4.8,26.5c-3.2,8.3-7.7,15.6-13.4,21.8
		C669.4,230.6,662.5,235.6,654.7,239.2z"/>
	<path class="st0" d="M993,11.3c0-2.9-1-5.1-3.1-6.9s-4.5-2.7-6.9-2.7h-28.3c-3.2,0-5.7,0.9-7.3,2.7c-1.7,1.8-2.5,4-2.5,6.8v81.5
		l-1.5-1.5c-8.2-8.5-17.7-15.4-28.3-20.3c-10.6-4.9-22.9-7.4-36.8-7.4c-15.4,0-29.9,3-43.1,8.8c-13.3,5.9-25,14-34.8,24.1
		s-17.7,22.2-23.2,35.8c-5.6,13.6-8.4,28.4-8.4,44c0,15.5,2.8,30.2,8.4,43.8s13.4,25.6,23.2,35.8c9.8,10.1,21.5,18.2,34.8,24.1
		c13.2,5.9,27.8,8.8,43.1,8.8c6.7,0,13.2-0.7,19.4-2.2s12.1-3.5,17.6-6.1s10.8-5.6,15.6-9.2c4.8-3.5,9.3-7.3,13.3-11.3l1.3-1.3
		l1.7,16.5c1,3.2,2.1,5.7,3.3,7.4c1.1,1.5,3.2,2.2,6.4,2.2h25.9c6.9,0,10.2-3.1,10.2-9.5L993,11.3L993,11.3z M948.1,177.4
		c-0.2,9.2-2.1,17.9-5.7,26c-3.5,8.1-8.4,15.2-14.4,21.3s-13.2,11-21.4,14.5c-8.1,3.5-16.9,5.3-26.1,5.3c-9.3,0-18-1.8-25.9-5.4
		c-7.8-3.6-14.8-8.5-20.6-14.7c-5.8-6.2-10.4-13.5-13.7-21.8c-3.3-8.3-4.9-17.2-4.9-26.5c0-9.2,1.6-18.1,4.9-26.4
		c3.2-8.4,7.8-15.8,13.6-22.1c5.8-6.3,12.7-11.5,20.6-15.2c7.9-3.8,16.6-5.7,25.9-5.7c9.4,0,18.3,1.9,26.5,5.7
		c8.2,3.8,15.4,8.9,21.4,15.2c6,6.3,10.9,13.8,14.3,22.1c3.5,8.4,5.3,17.3,5.3,26.4v1.3L948.1,177.4L948.1,177.4z"/>
	<path class="st0" d="M1091,2.3c-1.9-1.5-3.7-2.3-5.4-2.3h-39.3c-2.1,0-3.7,0.8-5,2.4c-1.4,1.7-2,3.4-2,5.2v163.5
		c0,18.9,3.2,35.9,9.5,50.5c6.3,14.6,15,27,25.8,36.9s23.5,17.5,37.8,22.6s29.7,7.7,45.7,7.7s31.4-2.4,45.7-7.3
		c14.3-4.8,27-12.2,37.8-22s19.4-22.1,25.8-36.8c6.3-14.6,9.5-32.1,9.5-51.7V7.6c0-2.1-0.8-3.8-2.5-5.3s-3.7-2.3-6.2-2.3H1231
		c-2.3,0-4.2,0.7-5.7,2.2s-2.2,3.3-2.2,5.4V169c0,10.3-1.5,19.9-4.4,28.5s-7.2,16.1-12.7,22.2c-5.5,6.2-12.4,11-20.4,14.4
		s-17.2,5.1-27.3,5.1c-9.6,0-18.4-1.6-26.2-4.8s-14.7-7.8-20.3-13.9c-5.6-6-10.1-13.5-13.2-22.2c-3.1-8.6-4.7-18.5-4.7-29.4V7.6
		C1093.8,5.6,1092.9,3.8,1091,2.3z"/>
	<path class="st0" d="M1362.3,284.2c4.1,0,7.4-2.2,10-6.7c10.2-15.2,20.3-30.3,30.4-45.4c10-14.9,20.2-30.2,30.5-45.3l0.7-1.1
		l0.7,1.1c9.5,13.9,19,28.1,28.4,42.2c9.2,13.8,18.8,28,28.4,42.2c1.4,2.1,2.7,3.9,3.8,5.6c1,1.6,2.1,3,3.3,4.1
		c1.1,1.1,2.2,1.9,3.4,2.5s2.6,0.9,4.2,0.9h48.5c3.4,0,3.4-1.3,3.4-1.8c0-0.6-0.2-1.4-0.5-2.6c-0.3-1.1-1-2.6-2.1-4.3l-91.1-134.9
		l0.3-0.5c15.3-23,30.9-46.1,46.2-68.7c15.4-22.7,30-44.1,43.7-64.2c1.8-2.7,2.2-4,2.2-4.7c0-1.2-0.5-1.6-1-1.8
		c-0.9-0.4-2.4-0.7-4.3-0.8h-45.8c-2.6,0-4.8,0.6-6.6,1.7c-1.8,1.2-3.7,3.1-5.6,5.8L1434,95.3l-59.1-87.7c-1.8-2.7-3.7-4.7-5.4-5.8
		s-3.9-1.7-6.6-1.7h-45.4c-1.7,0.2-3.3,0.5-4.7,0.7c-1,0.1-1.4,0.6-1.4,1.6c0,0.6,0.3,1.8,1.6,4l0.9,1.3
		c13.6,20.2,28,41.5,43.2,64.1s30.6,45.4,46.1,68.5l0.3,0.5l-0.3,0.5l-84.5,125c-1.4,2.2-2.7,4.3-4,6.4s-2.6,4.2-3.9,6.3l-0.1,0.1
		c0,0.1-0.2,0.4-0.4,1.4c-0.3,1.3-0.4,1.8-0.4,1.9c0,0.6,0,2,3.4,2h49L1362.3,284.2L1362.3,284.2z"/>
</g>
<g>
	<path class="st1" d="M517.1,380c0-2.5,1.2-3.7,3.6-3.7h49.2c4.6,0,8.8,0.9,12.9,2.6s7.5,4,10.4,7c2.9,2.9,5.3,6.4,7,10.4
		c1.7,4,2.6,8.3,2.6,12.9c0,4.3-0.8,8.2-2.3,11.9c-1.5,3.7-3.6,6.9-6.3,9.6c2.1,1.6,4.1,3.4,5.8,5.4c1.7,2.1,3.2,4.3,4.5,6.6
		c1.3,2.3,2.2,4.8,2.9,7.5s1.1,5.4,1.1,8.1c0,4.6-0.9,9.1-2.6,13.3c-1.8,4.2-4.1,7.9-7.1,11.1c-3,3.2-6.6,5.7-10.6,7.6
		c-4.1,1.9-8.5,2.8-13.1,2.8h-54.4c-1.1,0-1.9-0.3-2.6-0.8c-0.6-0.5-1-1.4-1-2.6L517.1,380L517.1,380z M579.9,409.5
		c0-2-0.4-3.8-1.1-5.6c-0.7-1.7-1.7-3.2-2.9-4.5c-1.3-1.3-2.8-2.2-4.6-2.9c-1.8-0.7-3.7-1.1-5.8-1.1h-25.7v28.5h25.5
		c2.1,0,4-0.4,5.8-1.1c1.8-0.7,3.3-1.8,4.6-3c1.3-1.3,2.3-2.8,3-4.6C579.5,413.4,579.9,411.5,579.9,409.5z M585,457.7
		c0-1.8-0.4-3.5-1-5.3c-0.6-1.7-1.5-3.2-2.6-4.6c-1.1-1.3-2.4-2.5-3.9-3.4c-1.5-0.9-3.2-1.5-5-1.9c-1.1-0.2-2.1-0.3-3.2-0.4
		c-1.1-0.1-2.1-0.2-3.3-0.2h-26.3v31.9H566c1.1,0,2.1,0,3.2-0.1s2.1-0.2,3.1-0.4c1.8-0.3,3.5-0.9,5-1.8c1.5-1,2.9-2.1,4-3.6
		c1.2-1.4,2-3,2.7-4.7C584.7,461.5,585,459.6,585,457.7z"/>
	<path class="st1" d="M669,423.9h0.2l23.8-45c0.5-1.2,1.1-1.8,1.5-2s1-0.4,1.7-0.5h21.7c1,0,1.5,0.4,1.5,1.3c0,0.4-0.4,1.2-1,2
		c-6.3,10.7-12.6,21.6-18.8,32.5c-6.3,10.9-12.6,21.8-19,32.5v44.7c0,2.5-1.2,3.7-3.6,3.7H661c-2.2,0-3.3-1.3-3.3-3.7v-44.6
		l-37.8-65c-0.3-0.3-0.4-0.6-0.6-1.2c-0.2-0.5-0.3-0.9-0.3-1.2c0-0.8,0.5-1.2,1.5-1.2H642c0.4,0.1,0.8,0.2,1,0.2
		c0.3,0,0.5,0.1,0.7,0.3c0.3,0.2,0.4,0.4,0.7,0.8s0.5,0.9,0.9,1.6L669,423.9z"/>
	<path class="st1" d="M783.6,490.1c0.3-1.1,0.5-2.1,0.9-2.9s0.6-1.7,0.9-2.4l42.4-105.6c0.2-0.5,0.6-1.3,1.3-2
		c0.7-0.7,1.7-1.1,2.9-1.1h12.7c1.3,0,2.1,0.4,2.7,1c0.5,0.6,1,1.2,1.3,1.6l2.6,6.2l41.5,103.9c0,0.2,0,0.4,0.1,0.8
		c0.1,0.4,0.1,0.7,0.1,1c0,1.6-1.2,2.3-3.5,2.3H874c-1.2,0-2.1-0.3-2.7-0.7c-0.6-0.4-1.2-1.2-1.6-2.2l-1.4-3.6c-1-2.5-2-5-2.9-7.6
		c-1-2.5-2-5.1-2.9-7.6h-48.5c-1.3,3.7-2.7,7.1-3.9,10.4c-1.3,3.2-2.4,6.1-3.3,8.5c-0.7,2-2.1,2.9-4.1,2.9h-15.7
		c-1,0-1.8-0.2-2.4-0.5c-0.6-0.4-0.9-0.9-0.9-1.6C783.5,490.6,783.5,490.3,783.6,490.1z M838.2,406.3c-2.9,7.2-5.6,14.7-8.5,22.5
		c-2.8,7.8-5.6,15.3-8.5,22.4h33.5L838.2,406.3z"/>
	<path class="st1" d="M912.7,380c0-2.5,1.2-3.7,3.6-3.7h44.7c5.3,0,10.2,1.1,14.6,3.1s8.3,4.8,11.5,8.3c3.2,3.5,5.7,7.4,7.5,11.9
		s2.7,9.2,2.7,14c0,4.7-0.9,9.4-2.7,13.8s-4.2,8.4-7.4,11.8c-3.2,3.4-7,6.2-11.3,8.2c-4.4,2.1-9.2,3.1-14.5,3.1h-25.9v39.1
		c0,2.2-1.2,3.4-3.5,3.4h-15.8c-2.3,0-3.5-1.2-3.5-3.4V380z M974.3,413.5c0-2.1-0.4-4.3-1.3-6.3c-0.8-2.1-2-3.9-3.5-5.5
		c-1.4-1.6-3.2-2.9-5.3-3.9c-2.1-1-4.3-1.5-6.7-1.5h-22.1v34.6h22.1c2.3,0,4.6-0.4,6.6-1.4c2.1-1,3.8-2.2,5.4-3.8
		c1.5-1.6,2.7-3.5,3.5-5.5C973.9,418,974.3,415.7,974.3,413.5z"/>
	<path class="st1" d="M1019.7,380c0-2.5,1.2-3.7,3.6-3.7h44.7c5.3,0,10.2,1.1,14.6,3.1s8.3,4.8,11.5,8.3c3.2,3.5,5.7,7.4,7.5,11.9
		c1.8,4.5,2.7,9.2,2.7,14c0,4.7-0.9,9.4-2.7,13.8c-1.8,4.5-4.2,8.4-7.4,11.8c-3.2,3.4-7,6.2-11.3,8.2c-4.4,2.1-9.2,3.1-14.5,3.1
		h-25.9v39.1c0,2.2-1.2,3.4-3.5,3.4h-15.7c-2.3,0-3.5-1.2-3.5-3.4L1019.7,380L1019.7,380z M1081.3,413.5c0-2.1-0.4-4.3-1.3-6.3
		c-0.8-2.1-2-3.9-3.5-5.5c-1.4-1.6-3.2-2.9-5.3-3.9c-2.1-1-4.3-1.5-6.7-1.5h-22.1v34.6h22.1c2.3,0,4.6-0.4,6.6-1.4
		c2.1-1,3.8-2.2,5.4-3.8c1.5-1.6,2.7-3.5,3.5-5.5C1080.9,418,1081.3,415.7,1081.3,413.5z"/>
	<path class="st1" d="M1215.4,384.7c0.6,0.4,1.2,0.8,1.6,1.3s0.6,1.2,0.6,1.9c0,0.5-0.2,1.2-0.4,1.8l-7.6,12.9
		c-0.9,1.3-1.9,1.8-2.9,1.8c-0.4,0-0.7-0.1-1.1-0.2c-0.4-0.1-0.8-0.4-1.3-0.6c-3.3-2.3-6.9-4.2-10.6-5.5c-3.8-1.3-7.8-2-12.1-2
		c-5.4,0-10.3,1-14.7,3s-8.3,4.7-11.5,8.2c-3.2,3.5-5.8,7.5-7.6,12.1c-1.8,4.6-2.7,9.6-2.7,15c0,5.3,0.9,10.3,2.7,14.9
		c1.8,4.6,4.4,8.7,7.6,12.1c3.2,3.5,7.1,6.2,11.5,8.2c4.5,2,9.4,2.9,14.7,2.9c4.3,0,8.3-0.6,12.1-2c3.8-1.3,7.4-3.1,10.6-5.5
		c0.4-0.4,0.9-0.5,1.3-0.6c0.4-0.1,0.8-0.2,1.2-0.3c0.9,0,1.8,0.5,2.8,1.7l7.8,13.1c0.4,0.6,0.4,1.3,0.4,1.7c0,0.7-0.3,1.3-0.6,1.8
		c-0.4,0.4-1,0.9-1.5,1.3c-4.9,3.3-10.3,5.9-15.9,7.7c-5.7,1.8-11.7,2.7-18,2.7c-5.5,0-10.9-0.7-16-2.1c-5.1-1.4-9.9-3.4-14.4-6.1
		c-4.5-2.6-8.5-5.7-12.1-9.4c-3.7-3.7-6.8-7.7-9.4-12.1c-2.6-4.5-4.6-9.2-6.1-14.3s-2.1-10.4-2.1-16c0-5.5,0.7-10.9,2.1-16
		c1.4-5.1,3.4-9.9,6.1-14.4c2.6-4.5,5.7-8.6,9.4-12.2c3.7-3.7,7.7-6.8,12.1-9.4s9.2-4.6,14.4-6.1c5.1-1.4,10.4-2.1,16-2.1
		c6.3,0,12.1,0.9,17.8,2.6C1205.2,378.9,1210.5,381.4,1215.4,384.7z"/>
	<path class="st1" d="M1264.7,445.6c0,4.4,0.6,8.4,1.9,11.9c1.3,3.5,3,6.5,5.3,8.9c2.3,2.4,5,4.3,8.2,5.6c3.2,1.3,6.7,2,10.5,2
		c4.1,0,7.8-0.7,11-2.1c3.2-1.3,6-3.3,8.2-5.8c2.2-2.5,3.9-5.4,5.1-8.9c1.2-3.5,1.8-7.3,1.8-11.5v-65.9c0-1,0.4-1.8,1-2.4
		c0.7-0.7,1.5-1,2.6-1h15.2c1.1,0,2.1,0.4,2.8,1c0.7,0.7,1.2,1.5,1.2,2.4v66.8c0,8.1-1.3,15.2-3.9,21.3c-2.6,6.1-6.2,11.1-10.6,15.1
		c-4.5,4-9.6,7.1-15.5,9c-5.9,2-12.1,2.9-18.8,2.9c-6.6,0-12.9-1.1-18.8-3.2c-5.9-2.1-11.1-5.3-15.5-9.3c-4.5-4.1-7.9-9.1-10.6-15.2
		c-2.6-6-3.9-12.9-3.9-20.7v-66.8c0-0.8,0.3-1.6,0.9-2.3c0.6-0.7,1.3-1.1,2.3-1.1h16.1c0.8,0,1.6,0.4,2.4,1c0.8,0.7,1.3,1.5,1.3,2.4
		L1264.7,445.6L1264.7,445.6z"/>
	<path class="st1" d="M1366.8,380.1c0-2.5,1.2-3.8,3.5-3.8h75.8c1.3,0,2.3,0.4,2.9,1.2c0.5,0.8,0.9,1.7,0.9,2.9v13.9
		c0,1-0.4,1.8-1,2.5c-0.6,0.7-1.6,1.1-2.9,1.1h-55.9v23.8h43c1.1-0.1,1.9,0.1,2.5,0.6c0.6,0.5,1,1.5,1,2.8v14.2c0,1-0.3,1.8-0.8,2.5
		c-0.5,0.7-1.3,1.1-2.5,1.1h-43.2v28.6h58c1.4,0,2.4,0.4,2.9,1c0.4,0.6,0.7,1.6,0.7,2.9v14.4c0,2.2-1.2,3.3-3.5,3.3h-77.9
		c-1,0-1.8-0.3-2.4-0.8c-0.7-0.5-1-1.3-1-2.5V380.1H1366.8z"/>
	<path class="st1" d="M1540.7,407.4c-0.7,0-1.3-0.2-1.9-0.5c-0.5-0.4-1.3-0.8-2-1.3l-0.2-0.1c-1-1-2.3-2.1-3.8-3.3
		c-1.6-1.2-3.3-2.3-5.3-3.4c-2-1.1-4-2-6.3-2.7c-2.2-0.7-4.5-1.1-6.8-1.1c-2.9,0-5.5,0.4-7.8,1c-2.2,0.6-4.1,1.5-5.6,2.7
		c-1.5,1.2-2.7,2.4-3.5,3.9c-0.8,1.5-1.2,3.1-1.2,4.9c0,1.9,0.6,3.6,1.8,4.9c1.2,1.4,2.8,2.7,4.8,3.8c2.1,1.1,4.4,2.1,7,3
		c2.6,0.9,5.4,1.8,8.2,2.7c3.3,1,6.6,2.1,9.8,3.2c3.2,1.2,6.3,2.4,9.3,3.9c2.9,1.4,5.7,3,8.3,4.8c2.6,1.8,4.8,3.8,6.6,6.1
		c1.9,2.3,3.3,4.8,4.4,7.6c1.1,2.8,1.6,6,1.6,9.5c0,5.7-1.2,10.9-3.5,15.4c-2.3,4.6-5.4,8.6-9.6,11.9c-4,3.3-8.8,5.8-14.3,7.6
		c-5.4,1.8-11.3,2.6-17.7,2.6c-4,0-8-0.4-12.1-1.4s-7.8-2.3-11.5-4c-3.7-1.7-7.1-3.8-10.4-6.3s-6.2-5.2-8.8-8.2v0.1l-0.2-0.4
		c-1.2-1.3-1.7-2.5-1.7-3.6c0-0.5,0.2-1.2,0.4-1.6c0.4-0.5,0.8-1.1,1.4-1.7l2.6-2.6c0.8-0.7,1.6-1.4,2.5-2.3
		c0.9-0.8,1.8-1.6,2.7-2.3c0.9-0.7,1.7-1.3,2.5-1.7c0.7-0.4,1.3-0.7,1.9-0.7c0.7,0,1.4,0.3,2.1,0.7c0.6,0.4,1.2,0.9,1.6,1.3l0.4,0.4
		h-0.1c1.9,1.7,3.9,3.4,6.2,4.9c2.2,1.5,4.6,2.9,7.1,4.2c2.4,1.3,4.8,2.2,7.2,2.9c2.4,0.7,4.6,1.1,6.7,1.1c2.9,0,5.6-0.4,8.1-1.1
		c2.5-0.7,4.7-1.8,6.5-3.1c1.9-1.3,3.3-2.9,4.3-4.8c1.1-1.9,1.6-4,1.6-6.3c0-2.3-0.7-4.3-2.1-5.9c-1.3-1.6-3.1-3.1-5.4-4.3
		c-2.2-1.3-4.6-2.3-7.4-3.2c-2.8-0.9-5.5-1.7-8.3-2.5c-6.4-2-12-4-16.8-6.3c-4.8-2.2-8.8-4.8-12-7.6c-3.2-2.8-5.6-6-7.2-9.5
		c-1.6-3.5-2.4-7.4-2.4-11.8c0-4.9,1-9.3,2.9-13.3c2-4,4.7-7.4,8.4-10.3c3.6-2.9,7.9-5.1,13-6.7c5.1-1.6,10.8-2.4,17.1-2.4
		c4.7,0,9.6,0.7,14.6,2.2c4.9,1.5,9.5,3.6,13.7,6.2c1.3,0.8,2.5,1.7,3.8,2.7c1.3,1,2.5,2,3.7,3c1.1,1,2,2.1,2.7,2.9
		c0.7,1,1.1,1.8,1.1,2.5c0,0.6-0.2,1.3-0.4,2c-0.4,0.6-0.7,1.3-1.2,1.8l-2.3,2.5v-0.1c-0.8,0.8-1.6,1.7-2.4,2.6
		c-0.8,0.9-1.7,1.7-2.5,2.4c-0.8,0.7-1.6,1.3-2.3,1.8C1541.8,407.2,1541.2,407.4,1540.7,407.4z"/>
</g>
</svg>
